<svg width="40" height="40" viewBox="0 0 40 40" fill="none" xmlns="http://www.w3.org/2000/svg">
<path d="M13.33 37.3332C12.1448 36.8888 10.8115 36.2962 9.92261 35.7036L13.1819 30.3703C13.7745 30.8147 15.2559 31.5555 17.1819 31.8518C19.1078 32.2962 21.6263 31.9999 23.2559 31.5555C24.8856 31.111 26.3671 30.3703 27.5522 29.3332C28.7374 28.2962 29.9226 26.9629 30.6634 25.6295C31.4041 24.1481 31.9967 22.5184 32.1448 20.8888C32.293 19.2592 32.1448 17.6295 31.7004 15.9999C31.2559 14.3703 30.5152 12.8888 29.4782 11.7036C28.4411 10.3703 27.2559 9.48139 25.7745 8.5925C24.1448 7.70362 21.9226 6.96287 19.7004 7.11102V0.740652C22.8115 0.592504 26.5152 1.92584 28.7374 3.11102C30.9596 4.29621 32.8856 5.92584 34.3671 7.85176C35.8485 9.77769 37.0337 11.8518 37.7745 14.2221C38.5152 16.5925 38.6634 19.111 38.3671 21.6295C38.0708 24.1481 37.33 26.5184 36.1448 28.7407C34.9596 30.9629 33.33 32.8888 31.4041 34.3703C29.4782 35.8518 27.2559 37.0369 24.8856 37.7777C22.5152 38.5184 19.7004 38.6666 17.4782 38.3703C15.5522 38.074 14.5152 37.7777 13.33 37.3332Z" fill="black"/>
<path d="M26.0759 13.926C25.7796 13.6297 25.4833 13.6297 25.187 13.926L17.0388 21.926C16.7425 22.2223 16.4463 22.2223 16.15 21.926L14.224 20.0001C13.9277 19.7038 13.6314 19.7038 13.3351 20.0001L12.15 21.1853C11.8537 21.4816 11.8537 21.7778 12.15 22.0741L16.2981 26.2223C16.5944 26.5186 16.8907 26.5186 17.187 26.2223L27.4092 16.1482C27.7055 15.8519 27.7055 15.5556 27.4092 15.2593L26.0759 13.926Z" fill="black"/>
<path d="M2.51722 27.4078C2.36907 26.9634 2.07277 26.3708 1.92462 25.9263C1.62833 25.1856 1.48018 24.593 1.33203 23.8522L7.40611 22.3708C7.55425 22.8152 7.7024 23.2597 7.85055 23.8522C7.9987 24.1485 8.14685 24.4448 8.29499 24.8893L2.51722 27.4078Z" fill="black"/>
<path d="M6.96261 33.4816C6.66631 33.1853 6.51817 33.0371 6.22187 32.7408C5.62928 32.1482 5.03668 31.4075 4.44409 30.6668L9.48113 26.9631C9.77742 27.4075 10.2219 27.8519 10.6663 28.2964C10.8145 28.4445 10.9626 28.5927 11.1108 28.7408L6.96261 33.4816Z" fill="black"/>
<path d="M0.739624 20.1484C0.739624 19.4076 0.739624 18.815 0.739624 18.0743V17.6298C0.739624 17.1854 0.887772 16.8891 0.887772 16.4447L7.10999 17.4817C7.10999 17.778 6.96185 18.0743 6.96185 18.2224V18.5187C6.96185 18.9632 6.96185 19.4076 6.96185 19.8521L0.739624 20.1484Z" fill="black"/>
<path d="M8.00015 14.9633L2.07422 12.7411C2.37052 11.8522 2.81496 11.1114 3.2594 10.3707C3.40755 10.0744 3.70385 9.7781 3.852 9.33366L9.18533 12.7411C8.88903 12.8892 8.74089 13.1855 8.74089 13.3337C8.44459 13.9262 8.14829 14.3707 8.00015 14.9633Z" fill="black"/>
<path d="M10.6659 10.8148L6.22144 6.37037C6.96218 5.62963 7.70292 4.88889 8.59181 4.2963C8.73995 4.14815 8.8881 4 9.03625 4L12.5918 9.18518L12.2955 9.33333C11.7029 9.77778 11.1103 10.2222 10.6659 10.8148Z" fill="black"/>
<path d="M14.8142 7.99991L12.2957 2.07398C13.4808 1.62954 14.666 1.18509 15.8512 1.03695L16.5919 4.14806L17.1845 7.25917C16.2957 7.40732 15.5549 7.55546 14.8142 7.99991Z" fill="black"/>
</svg>
