<svg width="24" height="24" viewBox="0 0 24 24" fill="none" xmlns="http://www.w3.org/2000/svg">
<g clip-path="url(#clip0_275_1635)">
<path d="M7.99952 22.4C7.28841 22.1333 6.48841 21.7778 5.95508 21.4222L7.91063 18.2222C8.26619 18.4889 9.15508 18.9333 10.3106 19.1111C11.4662 19.3778 12.9773 19.2 13.9551 18.9333C14.9329 18.6667 15.8217 18.2222 16.5329 17.6C17.244 16.9778 17.9551 16.1778 18.3995 15.3778C18.844 14.4889 19.1995 13.5111 19.2884 12.5333C19.3773 11.5556 19.2884 10.5778 19.0217 9.6C18.7551 8.62222 18.3106 7.73334 17.6884 7.02222C17.0662 6.22222 16.3551 5.68889 15.4662 5.15556C14.4884 4.62222 13.1551 4.17778 11.8217 4.26667V0.444447C13.6884 0.355558 15.9106 1.15556 17.244 1.86667C18.5773 2.57778 19.7329 3.55556 20.6217 4.71111C21.5106 5.86667 22.2217 7.11111 22.6662 8.53334C23.1106 9.95556 23.1995 11.4667 23.0217 12.9778C22.844 14.4889 22.3995 15.9111 21.6884 17.2444C20.9773 18.5778 19.9995 19.7333 18.844 20.6222C17.6884 21.5111 16.3551 22.2222 14.9329 22.6667C13.5106 23.1111 11.8217 23.2 10.4884 23.0222C9.33286 22.8444 8.71063 22.6667 7.99952 22.4Z" fill="black"/>
<path d="M15.6451 8.35547C15.4674 8.17769 15.2896 8.17769 15.1118 8.35547L10.2229 13.1555C10.0451 13.3332 9.86736 13.3332 9.68958 13.1555L8.53403 11.9999C8.35625 11.8221 8.17847 11.8221 8.00069 11.9999L7.28958 12.711C7.11181 12.8888 7.11181 13.0666 7.28958 13.2444L9.77847 15.7332C9.95625 15.911 10.134 15.911 10.3118 15.7332L16.4451 9.6888C16.6229 9.51103 16.6229 9.33325 16.4451 9.15547L15.6451 8.35547Z" fill="black"/>
<path d="M1.51092 16.4445C1.42203 16.1778 1.24425 15.8223 1.15536 15.5556C0.977582 15.1112 0.888694 14.7556 0.799805 14.3112L4.44425 13.4223C4.53314 13.6889 4.62203 13.9556 4.71092 14.3112C4.7998 14.4889 4.88869 14.6667 4.97758 14.9334L1.51092 16.4445Z" fill="black"/>
<path d="M4.1781 20.0889C4.00033 19.9111 3.91144 19.8223 3.73366 19.6445C3.3781 19.2889 3.02255 18.8445 2.66699 18.4L5.68921 16.1778C5.86699 16.4445 6.13366 16.7111 6.40033 16.9778C6.48921 17.0667 6.5781 17.1556 6.66699 17.2445L4.1781 20.0889Z" fill="black"/>
<path d="M0.444336 12.0889C0.444336 11.6444 0.444336 11.2889 0.444336 10.8444V10.5777C0.444336 10.3111 0.533225 10.1333 0.533225 9.86664L4.26656 10.4889C4.26656 10.6666 4.17767 10.8444 4.17767 10.9333V11.1111C4.17767 11.3777 4.17767 11.6444 4.17767 11.9111L0.444336 12.0889Z" fill="black"/>
<path d="M4.7997 8.97778L1.24414 7.64445C1.42192 7.11112 1.68859 6.66667 1.95525 6.22223C2.04414 6.04445 2.22192 5.86667 2.31081 5.60001L5.51081 7.64445C5.33303 7.73334 5.24414 7.91112 5.24414 8.00001C5.06636 8.35556 4.88859 8.62223 4.7997 8.97778Z" fill="black"/>
<path d="M6.39909 6.48907L3.73242 3.8224C4.17687 3.37795 4.62131 2.93351 5.15464 2.57795C5.24353 2.48907 5.33242 2.40018 5.42131 2.40018L7.55464 5.51129L7.37687 5.60018C7.02131 5.86684 6.66576 6.13351 6.39909 6.48907Z" fill="black"/>
<path d="M8.89002 4.80018L7.37891 1.24463C8.09002 0.977962 8.80113 0.711295 9.51224 0.622406L9.95668 2.48907L10.3122 4.35574C9.77891 4.44463 9.33446 4.53352 8.89002 4.80018Z" fill="black"/>
</g>
<defs>
<clipPath id="clip0_275_1635">
<rect width="24" height="24" fill="white"/>
</clipPath>
</defs>
</svg>
