<svg width="24" height="28" viewBox="0 0 24 28" fill="none" xmlns="http://www.w3.org/2000/svg">
<path d="M19.4249 5.16118V11.4039C19.4249 12.4076 18.6085 13.225 17.6038 13.225H9.02015V21.0283H10.3204C10.7515 21.0283 11.1007 21.3775 11.1007 21.8086C11.1007 22.2398 10.7515 22.589 10.3204 22.589H6.15826C5.72712 22.589 5.37793 22.2398 5.37793 21.8086C5.37793 21.3775 5.72712 21.0283 6.15826 21.0283H7.45849L7.45946 3.08063C7.45946 2.64948 7.80865 2.30029 8.2398 2.30029C8.67094 2.30029 9.02013 2.64948 9.02013 3.08063V3.34107H17.6038C18.6075 3.34107 19.4249 4.15749 19.4249 5.16218L19.4249 5.16118Z" fill="white"/>
</svg>
