<svg width="25" height="24" viewBox="0 0 25 24" fill="none" xmlns="http://www.w3.org/2000/svg">
<path d="M4.21029 3.60682C1.98477 5.83337 0.734429 8.85199 0.734429 12C0.734429 15.148 1.98474 18.1666 4.21029 20.3932C6.43685 22.6187 9.45548 23.8691 12.6035 23.8691C15.7515 23.8691 18.7701 22.6188 20.9967 20.3932C20.9967 20.3932 20.9967 20.3932 20.9967 20.3932M4.21029 3.60682L21.0893 3.51423C23.3394 5.7654 24.6035 8.81725 24.6035 12C24.6035 15.1828 23.3394 18.2347 21.0893 20.4858L20.9967 20.3932M4.21029 3.60682C6.43693 1.38124 9.45548 0.130913 12.6035 0.130913C15.7515 0.130913 18.7701 1.38125 20.9967 3.60677M4.21029 3.60682L20.9967 3.60677M20.9967 20.3932C23.2223 18.1666 24.4726 15.148 24.4726 12C24.4726 8.85197 23.2223 5.83341 20.9967 3.60677M20.9967 20.3932L20.9967 3.60677M5.72288 18.8807C3.89722 17.0561 2.87197 14.5805 2.87197 12C2.87197 9.41957 3.89726 6.94397 5.72282 5.11936C5.72284 5.11934 5.72286 5.11933 5.72288 5.11931M5.72288 18.8807L5.72288 5.11931M5.72288 18.8807C7.54749 20.7063 10.0232 21.7315 12.6035 21.7315C15.1839 21.7315 17.6595 20.7063 19.4842 18.8807M5.72288 18.8807L19.4842 18.8807M5.72288 5.11931C7.54749 3.29369 10.0231 2.26846 12.6035 2.26846C15.184 2.26846 17.6596 3.29376 19.4842 5.11936C21.3098 6.94397 22.3351 9.41957 22.3351 12C22.3351 14.5804 21.3098 17.056 19.4842 18.8806C19.4842 18.8807 19.4842 18.8807 19.4842 18.8807M5.72288 5.11931L19.3916 18.7881L19.4842 18.8807" fill="black" stroke="black" stroke-width="0.261826"/>
</svg>
